<?xml version="1.0" encoding="UTF-8" standalone="no"?>
<!-- Created with Inkscape (http://www.inkscape.org/) -->

<svg
   xmlns:dc="http://purl.org/dc/elements/1.1/"
   xmlns:cc="http://creativecommons.org/ns#"
   xmlns:rdf="http://www.w3.org/1999/02/22-rdf-syntax-ns#"
   xmlns:svg="http://www.w3.org/2000/svg"
   xmlns="http://www.w3.org/2000/svg"
   xmlns:sodipodi="http://sodipodi.sourceforge.net/DTD/sodipodi-0.dtd"
   xmlns:inkscape="http://www.inkscape.org/namespaces/inkscape"
   width="60pt"
   height="60pt"
   viewBox="0 0 75.000001 75.000001"
   id="svg2"
   version="1.1"
   inkscape:version="0.91 r13725"
   sodipodi:docname="gyroscope_icon.svg">
  <defs
     id="defs4">
    <clipPath
       id="clipPath4181"
       clipPathUnits="userSpaceOnUse">
      <path
         inkscape:connector-curvature="0"
         id="path4183"
         d="m 0,85.04 85.04,0 L 85.04,0 0,0 0,85.04 Z" />
    </clipPath>
  </defs>
  <sodipodi:namedview
     id="base"
     pagecolor="#ffffff"
     bordercolor="#666666"
     borderopacity="1.0"
     inkscape:pageopacity="0.0"
     inkscape:pageshadow="2"
     inkscape:zoom="0.35"
     inkscape:cx="-290.50352"
     inkscape:cy="-62.894473"
     inkscape:document-units="px"
     inkscape:current-layer="layer1"
     showgrid="false"
     fit-margin-top="0"
     fit-margin-left="0"
     fit-margin-right="0"
     fit-margin-bottom="0"
     units="pt"
     inkscape:window-width="1280"
     inkscape:window-height="709"
     inkscape:window-x="0"
     inkscape:window-y="1"
     inkscape:window-maximized="1" />
  <metadata
     id="metadata7">
    <rdf:RDF>
      <cc:Work
         rdf:about="">
        <dc:format>image/svg+xml</dc:format>
        <dc:type
           rdf:resource="http://purl.org/dc/dcmitype/StillImage" />
        <dc:title></dc:title>
      </cc:Work>
    </rdf:RDF>
  </metadata>
  <g
     inkscape:label="Layer 1"
     inkscape:groupmode="layer"
     id="layer1"
     transform="translate(-308.36067,-394.46773)">
    <g
       transform="matrix(0.96090476,0,0,-0.96090476,303.48307,474.42164)"
       inkscape:label="RS1760_MEMS_gyroscope"
       id="g4163">
      <g
         transform="translate(25.4551,33.1416)"
         id="g4165">
        <path
           inkscape:connector-curvature="0"
           id="path4167"
           style="fill:#00abdf;fill-opacity:1;fill-rule:nonzero;stroke:none"
           d="M 0,0 0.756,-1.039 19.605,-3.054 18.828,-2.183 0,0 Z" />
      </g>
      <g
         transform="translate(61.2314,54.4097)"
         id="g4169">
        <path
           inkscape:connector-curvature="0"
           id="path4171"
           style="fill:#00abdf;fill-opacity:1;fill-rule:nonzero;stroke:none"
           d="m 0,0 -16.253,-23.079 0.887,-0.995 L 0.804,-0.903 0,0 Z" />
      </g>
      <g
         transform="translate(60.1777,55.103)"
         id="g4173">
        <path
           inkscape:connector-curvature="0"
           id="path4175"
           style="fill:#00abdf;fill-opacity:1;fill-rule:nonzero;stroke:none"
           d="m 0,0 -19.302,1.147 -2.874,-4.048 6.166,-5.106 -4.143,-3.854 -5.395,4.239 -9.274,-13.038 18.739,-2.174 L 0,0 Z" />
      </g>
      <g
         id="g4177">
        <g
           clip-path="url(#clipPath4181)"
           id="g4179">
          <g
             transform="translate(75.9297,9.0391)"
             id="g4185">
            <path
               inkscape:connector-curvature="0"
               id="path4187"
               style="fill:#00abdf;fill-opacity:1;fill-rule:nonzero;stroke:none"
               d="m 0,0 c -1.256,0.115 -2.186,1.233 -2.07,2.491 0.114,1.26 1.233,2.191 2.49,2.075 C 1.677,4.45 2.608,3.331 2.493,2.073 2.378,0.814 1.258,-0.116 0,0 m -6.52,10.651 -3.551,3.449 c 2.763,2.453 5.258,5.095 7.437,7.869 C -2.849,17.611 -4.132,13.685 -6.52,10.651 M -23.113,4.518 c -0.349,0.032 -0.699,0.082 -1.047,0.128 3.711,1.8 7.337,4.045 10.748,6.68 0.501,0.389 0.998,0.783 1.484,1.184 L -8.173,8.866 C -11.853,5.463 -17,3.957 -23.113,4.518 m -7.685,1.711 c -6.119,2.125 -12.184,6.02 -17.383,11.28 -6.495,6.569 -10.861,14.444 -12.294,22.174 -0.209,1.128 -0.343,2.229 -0.421,3.304 2.147,3.282 4.794,6.457 7.89,9.405 l 17.121,-16.356 1.843,1.776 -17.124,16.258 c 0.853,0.744 1.725,1.475 2.639,2.182 3.567,2.755 7.46,5.012 11.455,6.748 7.588,-1.637 15.869,-5.937 22.142,-12.281 C -8.208,43.917 -4.165,35.65 -2.971,27.992 -5.701,24.11 -9.152,20.49 -13.166,17.103 l -10.696,10.453 -1.548,-1.987 10.348,-10.016 c -0.252,-0.199 -0.495,-0.399 -0.749,-0.595 -4.774,-3.692 -9.869,-6.672 -14.987,-8.729 M -48.516,3.193 c -6.692,0.616 -11.58,1.95 -15.013,6.391 -5.894,7.628 -5.297,19.223 0.697,30.175 0.029,-0.166 0.049,-0.33 0.081,-0.498 1.516,-8.179 6.106,-16.484 12.924,-23.38 4.722,-4.778 10.148,-8.483 15.716,-10.848 -4.92,-1.582 -9.808,-2.261 -14.405,-1.84 m -8.797,53.313 3.211,-3.068 c -2.58,-2.455 -4.869,-5.055 -6.847,-7.741 0.142,4.22 1.376,7.914 3.636,10.809 m 16.279,7.119 c 0.322,-0.03 0.649,-0.076 0.976,-0.117 -3.151,-1.65 -6.228,-3.614 -9.145,-5.869 -1.058,-0.817 -2.075,-1.662 -3.059,-2.527 l -3.381,3.216 c 3.661,3.475 8.484,5.859 14.609,5.297 m 26.471,3.484 c 6.692,-0.615 12.042,-3.288 15.474,-7.727 4.348,-5.626 4.221,-12.58 1.336,-21.239 -0.93,-2.788 -2.212,-5.46 -3.802,-8.022 -1.807,7.221 -6.019,14.751 -12.409,21.213 -6.147,6.219 -13.487,10.627 -20.785,12.611 6.931,2.639 14.037,3.728 20.186,3.164 m -52.82,-1.387 c -1.258,0.115 -2.188,1.233 -2.073,2.491 0.116,1.258 1.235,2.188 2.492,2.073 1.259,-0.116 2.189,-1.233 2.074,-2.493 -0.116,-1.258 -1.234,-2.187 -2.493,-2.071 M 0.547,5.949 C -0.123,6.011 -0.766,5.884 -1.333,5.62 l -3.52,3.415 c 3.341,4.132 4.695,9.631 4.216,15.626 2.622,3.793 4.661,7.785 6.01,11.836 3.14,9.415 2.205,18.045 -2.63,24.301 -3.833,4.962 -9.746,7.941 -17.096,8.617 -7.324,0.671 -15.559,-1.066 -23.45,-4.785 -0.89,0.159 -1.779,0.29 -2.662,0.37 -6.759,0.622 -12.722,-1.184 -16.855,-5.077 l -6.63,6.306 c 0.238,0.432 0.395,0.916 0.443,1.438 0.186,2.021 -1.308,3.816 -3.33,4.001 -2.021,0.186 -3.816,-1.307 -4.001,-3.328 -0.186,-2.021 1.307,-3.817 3.328,-4.002 0.609,-0.056 1.197,0.043 1.727,0.261 l 6.787,-6.485 c -3.265,-4.064 -4.713,-9.496 -4.184,-15.688 -7.647,-12.16 -8.987,-25.453 -2.181,-34.259 3.835,-4.963 9.748,-7.941 17.097,-8.616 6.368,-0.585 13.428,0.654 20.35,3.431 1.537,-0.366 3.072,-0.629 4.59,-0.769 6.738,-0.618 12.681,1.174 16.814,5.04 L -3.08,3.922 C -3.278,3.524 -3.412,3.088 -3.455,2.619 c -0.186,-2.021 1.308,-3.818 3.328,-4.003 2.022,-0.185 3.818,1.31 4.003,3.33 0.187,2.021 -1.309,3.818 -3.329,4.003" />
          </g>
        </g>
      </g>
    </g>
  </g>
</svg>
