<?xml version="1.0" encoding="UTF-8" standalone="no"?>
<svg
   xmlns:dc="http://purl.org/dc/elements/1.1/"
   xmlns:cc="http://creativecommons.org/ns#"
   xmlns:rdf="http://www.w3.org/1999/02/22-rdf-syntax-ns#"
   xmlns:svg="http://www.w3.org/2000/svg"
   xmlns="http://www.w3.org/2000/svg"
   version="1.1"
   id="svg2"
   viewBox="0 0 60.000002 59.999999"
   height="48pt"
   width="48pt">
  <defs
     id="defs4">
    <clipPath
       clipPathUnits="userSpaceOnUse"
       id="clipPath4150">
      <path
         d="m 0,85.04 85.04,0 L 85.04,0 0,0 0,85.04 Z"
         id="path4152" />
    </clipPath>
  </defs>
  <metadata
     id="metadata7">
    <rdf:RDF>
      <cc:Work
         rdf:about="">
        <dc:format>image/svg+xml</dc:format>
        <dc:type
           rdf:resource="http://purl.org/dc/dcmitype/StillImage" />
        <dc:title></dc:title>
      </cc:Work>
    </rdf:RDF>
  </metadata>
  <g
     transform="translate(0,-992.36222)"
     id="layer1">
    <g
       style="fill:#39a9dc;fill-opacity:1"
       id="g4144"
       transform="matrix(0.64560284,0,0,-0.64560284,2.5488399,1049.8131)">
      <g
         style="fill:#39a9dc;fill-opacity:1"
         id="g4146">
        <g
           style="fill:#39a9dc;fill-opacity:1"
           id="g4148"
           clip-path="url(#clipPath4150)">
          <g
             style="fill:#39a9dc;fill-opacity:1"
             id="g4154"
             transform="translate(67.7822,29.6182)">
            <path
               d="m 0,0 c 0,-14.258 -11.316,-25.822 -25.272,-25.822 -13.937,0 -25.252,11.564 -25.252,25.822 0,4.051 0.85,7.908 2.544,11.314 1.662,3.318 1.856,3.217 4.18,6.75 2.669,4.063 6.287,9.373 9.25,14.63 5.506,9.69 9.278,18.931 9.278,18.931 0,0 3.731,-9.176 9.255,-18.931 2.964,-5.209 6.579,-10.535 9.282,-14.63 2.329,-3.56 2.53,-3.432 4.2,-6.871 C -0.838,7.838 0,4.01 0,0"
               style="fill:#39a9dc;fill-opacity:1;fill-rule:nonzero;stroke:none"
               id="path4156" />
          </g>
        </g>
      </g>
    </g>
  </g>
</svg>
