<?xml version="1.0" encoding="UTF-8" standalone="no"?>
<!-- Created with Inkscape (http://www.inkscape.org/) -->

<svg
   xmlns:dc="http://purl.org/dc/elements/1.1/"
   xmlns:cc="http://creativecommons.org/ns#"
   xmlns:rdf="http://www.w3.org/1999/02/22-rdf-syntax-ns#"
   xmlns:svg="http://www.w3.org/2000/svg"
   xmlns="http://www.w3.org/2000/svg"
   xmlns:sodipodi="http://sodipodi.sourceforge.net/DTD/sodipodi-0.dtd"
   xmlns:inkscape="http://www.inkscape.org/namespaces/inkscape"
   id="svg4240"
   version="1.1"
   inkscape:version="0.91 r13725"
   xml:space="preserve"
   width="60pt"
   height="60pt"
   viewBox="0 0 74.999999 74.999999"
   sodipodi:docname="magnetometer_icon.svg"><metadata
     id="metadata4246"><rdf:RDF><cc:Work
         rdf:about=""><dc:format>image/svg+xml</dc:format><dc:type
           rdf:resource="http://purl.org/dc/dcmitype/StillImage" /><dc:title></dc:title></cc:Work></rdf:RDF></metadata><defs
     id="defs4244"><clipPath
       clipPathUnits="userSpaceOnUse"
       id="clipPath4270"><path
         d="m 0,85.04 85.04,0 L 85.04,0 0,0 0,85.04 Z"
         id="path4272"
         inkscape:connector-curvature="0" /></clipPath></defs><sodipodi:namedview
     pagecolor="#ffffff"
     bordercolor="#666666"
     borderopacity="1"
     objecttolerance="10"
     gridtolerance="10"
     guidetolerance="10"
     inkscape:pageopacity="0"
     inkscape:pageshadow="2"
     inkscape:window-width="1280"
     inkscape:window-height="709"
     id="namedview4242"
     showgrid="false"
     units="pt"
     inkscape:zoom="2.2201316"
     inkscape:cx="-9.4588986"
     inkscape:cy="53.150002"
     inkscape:window-x="0"
     inkscape:window-y="1"
     inkscape:window-maximized="1"
     inkscape:current-layer="g4248" /><g
     id="g4248"
     inkscape:groupmode="layer"
     inkscape:label="RS1762_MEMS_compass"
     transform="matrix(1.25,0,0,-1.25,0,75.000001)"><g
       id="g4826"
       transform="translate(-2.4607,-3.7559946)"><g
         transform="matrix(0.74889538,0,0,0.74889538,37.733523,50.087007)"
         id="g4250"><path
           inkscape:connector-curvature="0"
           id="path4252"
           style="fill:#d7007f;fill-opacity:1;fill-rule:evenodd;stroke:none"
           d="M 0,0 -2.889,-10.112 16.853,-5.901 5.404,12.474 -17.158,4.171 -5.777,-9.364 0,0 Z" /></g><g
         transform="matrix(0.74889538,0,0,0.74889538,14.111191,26.569221)"
         id="g4254"><path
           inkscape:connector-curvature="0"
           id="path4256"
           style="fill:#d7007f;fill-opacity:1;fill-rule:evenodd;stroke:none"
           d="M 0,0 10.532,-18.919 32.255,-10.748 20.76,3.2 14.475,-7.235 17.702,3.973 0,0 Z" /></g><g
         transform="matrix(0.74889538,0,0,0.74889538,43.976314,20.668749)"
         id="g4258"><path
           inkscape:connector-curvature="0"
           id="path4260"
           style="fill:#d7007f;fill-opacity:1;fill-rule:evenodd;stroke:none"
           d="M 0,0 23.747,8.933 12.453,27.061 -4.376,18.097 4.71,14.092 -5.907,15.519 0,0 Z" /></g><g
         transform="matrix(0.74889538,0,0,0.74889538,19.124521,51.092249)"
         id="g4262"><path
           inkscape:connector-curvature="0"
           id="path4264"
           style="fill:#d7007f;fill-opacity:1;fill-rule:evenodd;stroke:none"
           d="m 0,0 -20.686,-7.61 10.239,-18.393 14.207,7.442 -8.347,3.986 L 5.868,-16.081 0,0 Z" /></g><g
         transform="matrix(0.74889538,0,0,0.74889538,0.61789314,1.9127392)"
         id="g4266"><g
           clip-path="url(#clipPath4270)"
           id="g4268"><g
             transform="translate(41.8887,43.6973)"
             id="g4274"><path
               inkscape:connector-curvature="0"
               id="path4276"
               style="fill:#d7007f;fill-opacity:1;fill-rule:evenodd;stroke:none"
               d="m 0,0 c -1.854,0 -3.356,0.976 -3.356,2.179 0,1.204 1.502,2.179 3.356,2.179 1.854,0 3.357,-0.975 3.357,-2.179 C 3.357,0.976 1.854,0 0,0 M 40.69,-11.721 15.024,-21.376 7.187,-0.785 27.46,10.016 38.13,15.699 25.586,13.025 2.151,8.026 -11.37,24.11 -19.455,33.726 -8.547,3.832 -26.706,-5.68 l -1.672,-0.877 -10.804,19.408 -0.246,-4.003 9.262,-16.342 -9.22,-4.829 10.607,2.382 14.239,-25.124 0,3.65 -12.208,21.929 1.921,0.432 21.42,4.809 15.139,-18.369 -24.699,-9.29 0,-4.176 27.201,10.431 4.492,-5.449 -2.383,6.257 24.347,9.334 0,3.786 z" /></g></g></g></g></g></svg>