<?xml version="1.0" encoding="UTF-8" standalone="no"?>
<svg
   xmlns:dc="http://purl.org/dc/elements/1.1/"
   xmlns:cc="http://creativecommons.org/ns#"
   xmlns:rdf="http://www.w3.org/1999/02/22-rdf-syntax-ns#"
   xmlns:svg="http://www.w3.org/2000/svg"
   xmlns="http://www.w3.org/2000/svg"
   version="1.1"
   id="svg4237"
   viewBox="0 0 60.000002 59.999999"
   height="48pt"
   width="48pt">
  <defs
     id="defs4239">
    <clipPath
       clipPathUnits="userSpaceOnUse"
       id="clipPath4259">
      <path
         d="m 0,85.04 85.04,0 L 85.04,0 0,0 0,85.04 Z"
         id="path4261" />
    </clipPath>
  </defs>
  <metadata
     id="metadata4242">
    <rdf:RDF>
      <cc:Work
         rdf:about="">
        <dc:format>image/svg+xml</dc:format>
        <dc:type
           rdf:resource="http://purl.org/dc/dcmitype/StillImage" />
        <dc:title></dc:title>
      </cc:Work>
    </rdf:RDF>
  </metadata>
  <g
     transform="translate(0,-992.36222)"
     id="layer1">
    <g
       id="g4253"
       transform="matrix(0.67512649,0,0,-0.67512649,1.2938891,1050.929)">
      <g
         id="g4255">
        <g
           id="g4257"
           clip-path="url(#clipPath4259)">
          <g
             id="g4263"
             transform="translate(42.7871,19.04)">
            <path
               d="m 0,0 -0.404,0 c -12.604,0 -24.418,5.65 -33.268,14.647 -1.418,1.444 -1.398,4.03 0.045,5.447 1.441,1.421 3.762,0.532 5.18,-0.909 7.476,-7.603 17.457,-12.773 28.103,-12.863 10.651,-0.078 20.698,5.015 28.301,12.49 1.441,1.419 3.762,2.417 5.18,0.974 1.42,-1.443 1.4,-4.285 -0.043,-5.703 C 24.193,5.329 12.453,0 0,0"
               style="fill:#39a9dc;fill-opacity:1;fill-rule:nonzero;stroke:none"
               id="path4265" />
          </g>
          <g
             id="g4267"
             transform="translate(36.7305,49.7764)">
            <path
               d="M 0,0 0.021,29.567 12.109,29.559 12.088,-0.008 18.439,-0.013 5.777,-17.478 -6.861,0.005 0,0 Z"
               style="fill:#39a9dc;fill-opacity:1;fill-rule:evenodd;stroke:none"
               id="path4269" />
          </g>
          <g
             id="g4271"
             transform="translate(42.7988,5.2832)">
            <path
               d="m 0,0 c -0.141,0 -0.279,0.001 -0.42,0.002 -13.141,0.095 -25.453,4.612 -34.676,12.721 -1.42,1.248 -1.4,3.253 0.043,4.48 1.442,1.227 3.762,1.209 5.182,-0.038 7.85,-6.902 18.33,-10.747 29.512,-10.828 11.129,-0.077 21.734,3.612 29.716,10.4 1.442,1.227 3.764,1.21 5.18,-0.037 1.42,-1.249 1.401,-3.253 -0.041,-4.479 C 25.219,4.332 12.98,0 0,0"
               style="fill:#39a9dc;fill-opacity:1;fill-rule:nonzero;stroke:none"
               id="path4273" />
          </g>
        </g>
      </g>
    </g>
  </g>
</svg>
